<?xml version="1.0" encoding="utf-8"?>
<svg
	version="1.1"
	xmlns="http://www.w3.org/2000/svg"
	xmlns:xlink="http://www.w3.org/1999/xlink"
	x="0%" y="0%"
	width="100%" height="100%"
	viewBox="0 0 24.0 24.0"
	enable-background="new 0 0 24.0 24.0"
	xml:space="preserve">
	<path
		fill="#884499"
		stroke="#000000"
		fill-opacity="1.000"
		stroke-opacity="0.000"
		fill-rule="nonzero"
		stroke-width="0.0"
		stroke-linejoin="miter"
		stroke-linecap="square"
		d="M11.29,19.12Q10.84,19.58,11.00,18.89L11.07,18.03L5.74,12.45C5.12,11.72,5.09,11.58,6.67,9.93L8.99,7.40C9.67,6.63,9.88,7.02,10.44,7.51L12.06,9.08C12.45,9.43,12.58,9.72,12.08,10.25L11.49,10.91C11.07,11.35,10.98,11.39,10.22,10.85L8.13,9.39L9.93,11.49C10.52,12.15,10.30,12.18,9.68,13.12L8.59,14.74L10.26,13.32C10.96,12.80,10.98,12.65,11.70,13.19L14.92,15.48L12.16,12.26Q11.76,11.81,12.21,11.40L14.64,9.04C15.36,8.34,15.59,8.62,16.40,9.39L18.35,11.37C18.81,11.88,18.76,12.38,18.35,12.83L11.29,19.12z"/>
	<path
		fill="#884499"
		stroke="#FFFFFF"
		fill-opacity="1.000"
		stroke-opacity="0.000"
		fill-rule="nonzero"
		stroke-width="0.0"
		stroke-linejoin="miter"
		stroke-linecap="square"
		d="M14.70,8.19L13.30,9.70Q13.21,9.79,13.22,9.67L13.59,7.22Q13.62,7.06,13.71,7.16L14.71,8.07Q14.78,8.12,14.70,8.19zM11.50,5.83Q11.45,5.72,11.56,5.67L13.17,4.85Q13.32,4.77,13.31,4.94L12.73,8.31Q12.69,8.56,12.59,8.33L11.50,5.83z"/>
</svg>